{
    "asset" : {
        "generator" : "Khronos glTF Blender I/O v3.4.50",
        "version" : "2.0"
    },
    "scene" : 0,
    "scenes" : [
        {
            "name" : "Scene",
            "nodes" : [
                0
            ]
        }
    ],
    "nodes" : [
        {
            "mesh" : 0,
            "name" : "right",
            "rotation" : [
                0.7071068286895752,
                0,
                0,
                0.7071068286895752
            ],
            "scale" : [
                -0.03154541924595833,
                -0.03154541924595833,
                -0.03154541924595833
            ],
            "translation" : [
                0,
                1.2143248319625854,
                0
            ]
        }
    ],
    "materials" : [
        {
            "doubleSided" : true,
            "name" : "Yellow",
            "pbrMetallicRoughness" : {
                "baseColorFactor" : [
                    1,
                    0.8790415525436401,
                    0,
                    1
                ],
                "metallicFactor" : 0,
                "roughnessFactor" : 0.5
            }
        },
        {
            "doubleSided" : true,
            "name" : "Black",
            "pbrMetallicRoughness" : {
                "baseColorFactor" : [
                    0,
                    0,
                    0,
                    1
                ],
                "metallicFactor" : 0,
                "roughnessFactor" : 0.5
            }
        }
    ],
    "meshes" : [
        {
            "name" : "right",
            "primitives" : [
                {
                    "attributes" : {
                        "POSITION" : 0,
                        "NORMAL" : 1
                    },
                    "indices" : 2,
                    "material" : 0
                },
                {
                    "attributes" : {
                        "POSITION" : 3,
                        "NORMAL" : 4
                    },
                    "indices" : 5,
                    "material" : 1
                }
            ]
        }
    ],
    "accessors" : [
        {
            "bufferView" : 0,
            "componentType" : 5126,
            "count" : 16118,
            "max" : [
                25.842910766601562,
                -5.299998760223389,
                25.834293365478516
            ],
            "min" : [
                -25.742544174194336,
                -36.099998474121094,
                -25.758346557617188
            ],
            "type" : "VEC3"
        },
        {
            "bufferView" : 1,
            "componentType" : 5126,
            "count" : 16118,
            "type" : "VEC3"
        },
        {
            "bufferView" : 2,
            "componentType" : 5123,
            "count" : 17217,
            "type" : "SCALAR"
        },
        {
            "bufferView" : 3,
            "componentType" : 5126,
            "count" : 45962,
            "max" : [
                35.29896545410156,
                -9.249998092651367,
                35.27800750732422
            ],
            "min" : [
                -35.18523406982422,
                -35.099998474121094,
                -35.19999694824219
            ],
            "type" : "VEC3"
        },
        {
            "bufferView" : 4,
            "componentType" : 5126,
            "count" : 45962,
            "type" : "VEC3"
        },
        {
            "bufferView" : 5,
            "componentType" : 5123,
            "count" : 46107,
            "type" : "SCALAR"
        }
    ],
    "bufferViews" : [
        {
            "buffer" : 0,
            "byteLength" : 193416,
            "byteOffset" : 0,
            "target" : 34962
        },
        {
            "buffer" : 0,
            "byteLength" : 193416,
            "byteOffset" : 193416,
            "target" : 34962
        },
        {
            "buffer" : 0,
            "byteLength" : 34434,
            "byteOffset" : 386832,
            "target" : 34963
        },
        {
            "buffer" : 0,
            "byteLength" : 551544,
            "byteOffset" : 421268,
            "target" : 34962
        },
        {
            "buffer" : 0,
            "byteLength" : 551544,
            "byteOffset" : 972812,
            "target" : 34962
        },
        {
            "buffer" : 0,
            "byteLength" : 92214,
            "byteOffset" : 1524356,
            "target" : 34963
        }
    ],
    "buffers" : [
        {
            "byteLength" : 1616572,
            "uri" : "data:application/octet-stream;base64,"
        }
    ]
}
